# xmcd CD database file
#
# Track frame offsets:
#	150
#	16399
#	30717
#	43658
#	57597
#	78635
#	97169
#	115866
#	131797
#	145621
#	167123
#	179654
#
# Disc length: 2629 seconds
#
# Revision: 0
# Processed by: cddbd v1.5.1PL2 Copyright (c) Steve Scherf et al.
# Submitted via: CDex 1.51
#
DISCID=ad0a430c
DTITLE=Norm Heinz - Bush Ballads And Stories Worth Telling
DYEAR=2005
DGENRE=Country
TTITLE0=South Grafton My Town
TTITLE1=Rusty Acres Farm
TTITLE2=Dad Drove For Jimmy Connors
TTITLE3=The Best I Have Seen
TTITLE4=He Sang Me Bush Ballads
TTITLE5=There's Something In The Scrub There
TTITLE6=He Lived There In A Cave
TTITLE7=The Volunteer
TTITLE8=Was It Really All That Bad
TTITLE9=The Man We Know As Bill
TTITLE10=No Country Music Star
TTITLE11=The Best Days Of All
EXTD=YEAR: 2005
EXTT0=
EXTT1=
EXTT2=
EXTT3=
EXTT4=
EXTT5=
EXTT6=
EXTT7=
EXTT8=
EXTT9=
EXTT10=
EXTT11=
PLAYORDER=
